<svg width="34" height="31" viewBox="0 0 34 31" fill="none" xmlns="http://www.w3.org/2000/svg">
<path d="M13.6 13.0526C17.357 13.0526 20.4 10.1321 20.4 6.52632C20.4 2.92053 17.357 0 13.6 0C9.843 0 6.8 2.92053 6.8 6.52632C6.8 10.1321 9.843 13.0526 13.6 13.0526ZM13.6 3.26316C14.5017 3.26316 15.3665 3.60695 16.0042 4.21891C16.6418 4.83088 17 5.66087 17 6.52632C17 7.39176 16.6418 8.22176 16.0042 8.83372C15.3665 9.44568 14.5017 9.78947 13.6 9.78947C11.713 9.78947 10.2 8.33737 10.2 6.52632C10.2 4.71526 11.73 3.26316 13.6 3.26316ZM17 26.1053H0V21.2105C0 16.8542 9.061 14.6842 13.6 14.6842C15.3 14.6842 17.646 14.9942 19.907 15.5979C19.397 16.5116 19.091 17.5232 19.057 18.5837C17.391 18.1105 15.487 17.7842 13.6 17.7842C8.551 17.7842 3.23 20.1663 3.23 21.2105V23.0053H17V26.1053ZM31.96 21.2105V18.7632C31.96 16.4789 29.58 14.6842 27.2 14.6842C24.82 14.6842 22.44 16.4789 22.44 18.7632V21.2105C21.42 21.2105 20.4 22.1895 20.4 23.1684V28.8789C20.4 30.0211 21.42 31 22.44 31H31.79C32.98 31 34 30.0211 34 29.0421V23.3316C34 22.1895 32.98 21.2105 31.96 21.2105ZM29.75 21.2105H24.65V18.7632C24.65 17.4579 25.84 16.6421 27.2 16.6421C28.56 16.6421 29.75 17.4579 29.75 18.7632V21.2105Z" fill="url(#paint0_linear_203_24)"/>
<defs>
<linearGradient id="paint0_linear_203_24" x1="17" y1="0" x2="17" y2="31" gradientUnits="userSpaceOnUse">
<stop stop-color="#0088B7"/>
<stop offset="0.520833" stop-color="#0B7AA0"/>
<stop offset="0.807292" stop-color="#008DBE"/>
</linearGradient>
</defs>
</svg>
