<svg width="58" height="58" viewBox="0 0 58 58" fill="none" xmlns="http://www.w3.org/2000/svg">
<path d="M51.2547 0.036377C52.9504 0.036377 54.5767 0.710009 55.7758 1.90908C56.9748 3.10815 57.6485 4.73445 57.6485 6.43019V51.1869C57.6485 52.8826 56.9748 54.5089 55.7758 55.708C54.5767 56.9071 52.9504 57.5807 51.2547 57.5807H6.49794C4.8022 57.5807 3.1759 56.9071 1.97683 55.708C0.777758 54.5089 0.104126 52.8826 0.104126 51.1869V6.43019C0.104126 4.73445 0.777758 3.10815 1.97683 1.90908C3.1759 0.710009 4.8022 0.036377 6.49794 0.036377H51.2547ZM49.6562 49.5884V32.6448C49.6562 29.8808 48.5582 27.2299 46.6037 25.2754C44.6492 23.3209 41.9983 22.2229 39.2343 22.2229C36.5169 22.2229 33.352 23.8853 31.8175 26.3789V22.8303H22.8981V49.5884H31.8175V33.8277C31.8175 31.3661 33.7995 29.352 36.2612 29.352C37.4482 29.352 38.5866 29.8236 39.4259 30.6629C40.2653 31.5023 40.7368 32.6407 40.7368 33.8277V49.5884H49.6562ZM12.5081 17.8112C13.9326 17.8112 15.2986 17.2453 16.3059 16.2381C17.3131 15.2309 17.8789 13.8648 17.8789 12.4404C17.8789 9.46726 15.4813 7.03761 12.5081 7.03761C11.0752 7.03761 9.70101 7.60682 8.68779 8.62004C7.67457 9.63326 7.10535 11.0075 7.10535 12.4404C7.10535 15.4135 9.535 17.8112 12.5081 17.8112ZM16.9518 49.5884V22.8303H8.0964V49.5884H16.9518Z" fill="url(#paint0_linear_136_265)"/>
<defs>
<linearGradient id="paint0_linear_136_265" x1="28.8763" y1="0.036377" x2="28.8763" y2="57.5807" gradientUnits="userSpaceOnUse">
<stop stop-color="#0088B7"/>
<stop offset="0.823023" stop-color="#0B7AA0"/>
<stop offset="1" stop-color="#008DBE"/>
</linearGradient>
</defs>
</svg>
