<?xml version="1.0" standalone="no"?>
<!DOCTYPE svg PUBLIC "-//W3C//DTD SVG 20010904//EN"
 "http://www.w3.org/TR/2001/REC-SVG-20010904/DTD/svg10.dtd">
<svg version="1.0" xmlns="http://www.w3.org/2000/svg"
 width="1620.000000pt" height="2234.000000pt" viewBox="0 0 1620.000000 2234.000000"
 preserveAspectRatio="xMidYMid meet">

<g transform="translate(0.000000,2234.000000) scale(0.100000,-0.100000)"
fill="#000000" stroke="none">
<path d="M4110 22320 l-3245 -5 -100 -27 c-387 -107 -668 -406 -740 -790 -14
-75 -15 -1100 -13 -10373 l3 -10290 22 -76 c101 -356 363 -622 708 -721 l80
-23 2655 -2 c1460 -2 4725 1 7255 5 l4600 8 100 27 c385 103 668 405 740 789
14 75 15 1100 13 10373 l-3 10290 -22 76 c-101 355 -352 613 -703 721 l-75 23
-4015 0 c-2208 0 -5475 -2 -7260 -5z m11278 -248 c276 -84 474 -287 542 -556
20 -79 20 -122 20 -10333 0 -9397 -1 -10260 -16 -10326 -54 -241 -227 -445
-458 -539 -148 -61 227 -56 -5466 -62 -2874 -3 -6100 -7 -7170 -8 l-1945 -3
-76 22 c-277 78 -480 285 -549 557 -20 79 -20 122 -20 10333 0 9397 1 10260
16 10326 9 40 31 105 50 145 114 250 335 412 605 442 65 8 2121 14 6669 19
3616 5 6834 7 7150 7 562 -2 577 -3 648 -24z"/>
<path d="M9270 14308 l0 -7043 2068 -569 c1137 -313 2076 -572 2087 -576 24
-9 10 -13 -224 -65 l-164 -36 -2031 617 c-1117 340 -2037 622 -2043 627 -10 8
-13 1409 -13 6948 l0 6939 -140 0 -140 0 0 -6943 0 -6943 1880 -674 c1257
-451 1874 -677 1862 -682 -21 -9 -413 -69 -672 -103 -854 -110 -1725 -175
-2765 -206 -437 -13 -1735 -7 -2110 10 -869 39 -1477 86 -2165 167 -295 34
-783 104 -793 113 -4 4 859 316 1917 692 l1926 684 0 6713 0 6712 -140 0 -140
0 0 -6715 0 -6714 -62 -19 c-35 -10 -979 -294 -2099 -631 l-2036 -613 -206 42
c-114 24 -207 46 -207 49 0 4 953 270 2117 592 l2118 584 3 6593 2 6592 -230
0 -230 0 0 -6594 0 -6594 -82 -20 c-345 -87 -4200 -1022 -4212 -1022 -35 0
-329 102 -315 110 8 4 976 216 2151 471 l2138 464 0 6593 0 6592 -230 0 -230
0 0 -6594 0 -6594 -22 -5 c-13 -3 -958 -182 -2102 -396 l-2078 -391 -79 42
c-117 62 -267 177 -232 178 4 0 951 130 2103 288 l2095 288 3 6592 2 6592
-230 0 -230 0 0 -5988 0 -5988 -207 -23 c-709 -76 -1476 -206 -2024 -341
-1052 -261 -1686 -603 -1784 -963 -26 -96 -18 -428 12 -504 99 -251 465 -483
1093 -693 1731 -579 5021 -833 8075 -624 2509 172 4403 648 4795 1206 79 113
85 139 85 388 l0 216 -39 79 c-137 279 -642 559 -1406 781 -626 183 -1457 340
-2320 439 -129 15 -241 29 -247 31 -10 3 -13 1210 -13 5994 l0 5990 -230 0
-230 0 2 -6592 3 -6592 2060 -272 c1133 -149 2084 -275 2113 -279 28 -4 52
-11 52 -15 0 -14 -124 -108 -211 -159 l-84 -49 -2120 384 c-1166 211 -2121
384 -2122 384 -2 0 -3 2968 -3 6595 l0 6595 -230 0 -230 0 2 -6592 3 -6593
2172 -455 c1194 -250 2174 -458 2178 -461 3 -4 -66 -30 -153 -58 l-158 -52
-2190 506 c-1204 278 -2197 508 -2206 511 -17 5 -18 349 -18 7050 l0 7044
-120 0 -120 0 0 -7042z m-4180 -6138 c0 -93 -1 -170 -2 -170 -5 0 -671 228
-702 239 -16 7 -27 14 -24 16 3 4 214 31 568 73 41 5 94 10 118 11 l42 1 0
-170z m6340 110 c327 -37 354 -41 343 -50 -4 -4 -155 -58 -335 -119 l-328
-110 0 154 0 155 28 0 c15 0 146 -14 292 -30z m-6921 -210 c295 -67 546 -123
559 -127 16 -4 22 -12 22 -34 0 -16 -5 -29 -12 -29 -27 0 -1308 275 -1308 281
0 7 107 26 164 28 22 0 280 -53 575 -119z m7768 99 c43 -6 84 -14 90 -18 10
-5 -1223 -273 -1249 -271 -7 0 -12 60 -5 60 1 0 238 54 527 119 289 66 533
120 542 120 9 1 52 -4 95 -10z m-8084 -230 l897 -123 0 -33 c0 -18 -3 -33 -7
-33 -25 -1 -2011 253 -2027 259 -13 5 16 15 95 33 63 14 121 25 129 23 8 -2
419 -59 913 -126z m8816 99 c58 -12 109 -24 113 -28 4 -3 -428 -61 -960 -129
-532 -67 -986 -125 -1009 -128 l-43 -6 0 35 0 35 203 27 c111 16 501 70 867
121 366 51 678 93 694 94 16 0 77 -9 135 -21z m-9206 -258 c681 -44 1249 -80
1262 -80 22 0 25 -4 25 -35 l0 -36 -97 6 c-54 3 -676 26 -1383 50 -1291 45
-1475 53 -1467 62 3 2 81 31 173 62 126 44 177 57 208 54 23 -2 598 -39 1279
-83z m10101 24 c87 -29 160 -55 163 -57 8 -8 -195 -17 -1492 -62 -698 -24
-1314 -47 -1367 -50 l-98 -6 0 36 c0 34 1 35 43 36 23 0 605 38 1292 83 688
46 1261 81 1275 78 14 -3 96 -29 184 -58z m-8814 -398 l0 -144 -52 -6 c-82 -9
-3781 -336 -3807 -336 -23 0 -24 2 -18 58 6 69 36 152 79 218 50 77 173 193
287 269 l103 70 1012 5 c556 3 1323 6 1704 8 l692 2 0 -144z m8780 134 l657 0
90 -60 c219 -146 350 -317 369 -484 6 -53 6 -56 -15 -56 -26 0 -3718 307
-3803 316 l-58 6 0 146 0 145 1052 -6 c578 -4 1347 -7 1708 -7z"/>
<path d="M8060 14095 l0 -6825 145 0 145 0 0 6825 0 6825 -145 0 -145 0 0
-6825z"/>
<path d="M2090 3348 c0 -898 7 -1137 36 -1322 44 -279 140 -464 338 -654 213
-205 497 -331 839 -373 145 -17 484 -6 612 20 359 74 643 243 833 494 162 212
221 410 242 806 5 97 10 569 10 1049 l0 872 -564 0 -564 0 -5 -952 c-3 -648
-8 -971 -16 -1011 -40 -202 -117 -283 -280 -294 -185 -13 -281 62 -327 258
-16 67 -18 164 -21 1037 l-4 962 -565 0 -564 0 0 -892z"/>
<path d="M5250 2615 l0 -1625 620 0 620 0 0 580 0 580 415 0 c228 0 415 4 415
9 0 11 118 759 126 794 l6 27 -481 0 -481 0 0 195 0 195 510 0 510 0 5 23 c2
12 32 195 65 407 33 212 63 397 66 413 l6 27 -1201 0 -1201 0 0 -1625z"/>
<path d="M7905 4218 c-3 -13 -120 -732 -260 -1598 -141 -866 -258 -1587 -261
-1603 l-6 -27 546 0 c534 0 546 0 546 19 0 11 29 298 65 638 36 340 76 752 90
917 13 164 26 300 28 303 2 2 7 -20 11 -49 20 -155 86 -415 272 -1070 113
-397 207 -731 210 -740 5 -17 30 -18 334 -18 l329 0 12 43 c6 23 92 326 191
672 191 672 234 834 271 1040 l24 130 7 -65 c3 -36 15 -174 26 -307 11 -134
49 -521 85 -860 36 -340 65 -626 65 -635 0 -17 33 -18 546 -18 l546 0 -6 33
c-6 31 -486 3207 -486 3214 0 2 -258 3 -572 3 l-573 0 -84 -288 c-233 -797
-280 -979 -327 -1270 -33 -202 -33 -202 -44 -202 -5 0 -11 15 -14 33 -3 17
-15 93 -26 168 -32 210 -78 398 -243 1001 l-152 558 -572 0 -573 0 -5 -22z"/>
<path d="M12730 4233 c-102 -11 -271 -47 -363 -77 -194 -64 -339 -150 -481
-286 -137 -132 -216 -256 -269 -425 -51 -163 -60 -387 -22 -545 51 -210 213
-402 430 -510 115 -57 201 -84 418 -131 272 -58 358 -94 400 -167 40 -68 -17
-165 -113 -193 -65 -20 -239 -17 -335 5 -112 25 -454 155 -610 231 -71 35
-130 63 -131 62 -2 -6 166 -1100 170 -1104 10 -11 186 -42 346 -62 476 -60
803 -46 1093 45 340 108 637 359 757 643 69 161 100 371 81 537 -23 196 -91
336 -230 475 -149 149 -273 207 -596 279 -376 83 -515 148 -515 241 0 104 109
156 305 146 60 -3 144 -15 185 -26 110 -29 435 -152 557 -211 59 -28 107 -49
109 -47 2 2 -31 222 -74 489 l-76 486 -101 31 c-131 40 -333 86 -466 105 -98
15 -370 20 -469 9z"/>
</g>
</svg>
